<svg width="705" height="194" viewBox="0 0 705 194" fill="none" xmlns="http://www.w3.org/2000/svg">
<path d="M329.292 156.992H309.528L296.56 116.349H246.099L233.131 156.992H213.56L261.347 15.9819H281.506L329.292 156.992ZM442.614 29.6673L363.292 136.529L363.131 136.745L362.873 136.826L354.165 139.547V140.041H445.71V156.992H337.021V142.143L337.187 141.923L416.507 35.8387L425.663 33.0353V32.5454H340.892V15.9819H442.614V29.6673ZM569.14 156.992H549.375L536.408 116.349H485.947L472.978 156.992H453.408L501.194 15.9819H521.353L569.14 156.992ZM635.181 15.9819C646.094 15.982 655.806 17.605 664.302 20.8701C672.92 24.0042 680.188 28.5826 686.088 34.6114C691.99 40.5134 696.439 47.8468 699.443 56.5911C702.578 65.2137 704.138 74.9896 704.138 85.9062C704.138 97.0761 702.579 107.104 699.447 115.981L699.448 115.981C696.444 124.73 691.998 132.191 686.101 138.35L686.095 138.356C680.196 144.386 672.93 149.029 664.312 152.293L664.306 152.295C655.81 155.432 646.097 156.992 635.181 156.992H585.577V15.9819H635.181ZM682.702 140.438C683.473 139.755 684.224 139.052 684.953 138.328L685.501 137.775C684.601 138.695 683.668 139.583 682.702 140.438ZM604.27 140.235H634.6C641.998 140.235 648.738 139.151 654.829 136.996C661.044 134.712 666.359 131.356 670.785 126.93L670.793 126.922C675.334 122.507 678.819 116.88 681.234 110.017L681.239 110.004C683.778 103.149 685.058 95.1213 685.058 85.9062C685.058 76.9512 683.778 69.1855 681.242 62.5922L681.239 62.5841L681.236 62.5743C678.822 55.842 675.34 50.3459 670.802 46.0604L670.785 46.0433C666.362 41.6206 661.053 38.3313 654.843 36.177L654.834 36.1738L654.824 36.1697C648.735 33.8865 641.997 32.7392 634.6 32.7392H604.27V140.235ZM268.562 46.6063L268.54 46.6777L248.372 109.655H294.48L274.312 46.6777L274.289 46.6063L271.859 28.0944H270.993L268.562 46.6063ZM508.41 46.6063L508.387 46.6777L488.219 109.655H534.328L514.159 46.6777L514.137 46.6063L511.706 28.0944H510.841L508.41 46.6063ZM685.855 88.4355C685.852 88.5829 685.846 88.7299 685.842 88.8767C685.854 88.4651 685.866 88.0512 685.873 87.6348L685.855 88.4355Z" fill="white"/>
<path d="M185.62 181.767L193.706 167.229C197.749 159.917 197.921 151.142 194.136 143.658L169.705 95.7433L143.124 43.5273L136.242 29.9356L134.436 26.3226C129.963 19.1827 122.048 14.4514 113.102 14.4514C104.328 14.4514 96.5854 19.0106 92.1122 25.8925L90.5638 28.6452L21.4869 151.916L19.5944 155.357C16.1534 162.583 15.9814 171.702 20.7987 180.734C22.8633 184.691 26.2182 187.874 30.1753 189.853C44.8853 197.251 59.5093 191.573 66.3052 180.562L67.3374 178.756L112.93 97.4638C113.36 96.6036 113.79 95.7433 114.392 94.8831C118.693 88.0873 126.35 83.6141 134.952 83.6141C148.458 83.6141 159.383 94.539 159.383 108.045C159.383 111.916 158.436 115.615 156.802 118.884C156.458 119.572 156.028 120.346 155.598 120.948L137.275 153.551L135.21 157.164C133.748 160.433 132.887 163.96 132.887 167.745C132.887 181.164 143.21 192.089 156.286 193.208H166.006C174.179 193.208 181.663 188.82 185.62 181.767Z" fill="white"/>
<path fill-rule="evenodd" clip-rule="evenodd" d="M86.7181 27.1225C94.6678 13.0793 111.167 7.38702 123.571 14.4084C109.513 6.45084 91.6733 11.3842 83.7237 25.4274L14.3941 147.899C6.44447 161.942 11.3956 179.777 25.4528 187.735C13.0494 180.713 9.43891 163.637 17.3886 149.594L86.7181 27.1225Z" fill="white"/>
<path fill-rule="evenodd" clip-rule="evenodd" d="M150.011 118.563C155.754 108.418 153.734 92.5159 143.505 86.922C155.419 93.4373 159.694 108.442 153.005 120.258L133.337 155.001C125.702 168.489 131.129 185.622 145.136 192.255C129.322 184.767 121.723 168.534 130.343 153.306L150.011 118.563Z" fill="white"/>
<path d="M380.237 166.335C381.943 166.335 383.421 166.653 384.669 167.29C385.943 167.927 386.936 168.806 387.65 169.927C388.363 171.022 388.719 172.296 388.719 173.748H385.357C385.357 173.009 385.165 172.284 384.783 171.57C384.401 170.857 383.816 170.271 383.027 169.812C382.262 169.329 381.294 169.086 380.122 169.086C379.154 169.06 378.288 169.226 377.524 169.583C376.785 169.914 376.199 170.398 375.766 171.035C375.358 171.672 375.154 172.449 375.154 173.366C375.155 174.232 375.333 174.932 375.69 175.467C376.072 176.002 376.607 176.461 377.295 176.843C378.008 177.199 378.836 177.53 379.779 177.836C380.721 178.142 381.765 178.486 382.911 178.868C384.21 179.301 385.357 179.836 386.351 180.473C387.37 181.084 388.159 181.874 388.719 182.842C389.305 183.81 389.598 185.045 389.598 186.548C389.598 187.821 389.254 189.032 388.567 190.178C387.904 191.299 386.911 192.215 385.586 192.929C384.262 193.642 382.593 193.999 380.58 193.999C378.619 193.999 376.912 193.642 375.46 192.929C374.008 192.215 372.887 191.222 372.098 189.948C371.308 188.675 370.913 187.198 370.913 185.517H374.277C374.277 186.561 374.518 187.528 375.002 188.42C375.486 189.286 376.187 189.987 377.104 190.521C378.046 191.031 379.205 191.286 380.58 191.286C381.777 191.286 382.797 191.095 383.638 190.713C384.504 190.305 385.153 189.758 385.586 189.07C386.045 188.383 386.274 187.605 386.274 186.739C386.274 185.771 386.057 184.969 385.624 184.332C385.217 183.67 384.644 183.135 383.905 182.728C383.167 182.295 382.313 181.912 381.345 181.581C380.377 181.25 379.333 180.905 378.212 180.549C375.97 179.836 374.339 178.944 373.32 177.874C372.327 176.779 371.83 175.378 371.83 173.672C371.83 172.22 372.162 170.946 372.824 169.851C373.512 168.755 374.48 167.901 375.728 167.29C377.001 166.653 378.504 166.335 380.237 166.335ZM421.769 166.335C424.265 166.335 426.443 166.921 428.303 168.093C430.162 169.264 431.601 170.895 432.62 172.983C433.639 175.047 434.149 177.441 434.149 180.167C434.149 182.918 433.639 185.338 432.62 187.427C431.601 189.49 430.162 191.108 428.303 192.279C426.443 193.426 424.265 193.999 421.769 193.999C419.323 193.999 417.17 193.426 415.311 192.279C413.451 191.108 412 189.49 410.955 187.427C409.911 185.338 409.389 182.918 409.389 180.167C409.389 177.441 409.911 175.047 410.955 172.983C412 170.895 413.451 169.264 415.311 168.093C417.17 166.921 419.323 166.335 421.769 166.335ZM493.032 183.721C493.032 185.453 493.313 186.867 493.873 187.962C494.459 189.057 495.262 189.86 496.28 190.369C497.299 190.879 498.471 191.133 499.796 191.133C501.146 191.133 502.317 190.878 503.311 190.369C504.304 189.86 505.081 189.057 505.642 187.962C506.202 186.867 506.483 185.453 506.483 183.721V166.794H509.693V183.683C509.693 186.051 509.246 188 508.355 189.528C507.463 191.031 506.266 192.152 504.763 192.891C503.26 193.629 501.578 193.999 499.719 193.999C497.885 193.999 496.217 193.629 494.714 192.891C493.237 192.152 492.052 191.031 491.16 189.528C490.269 188 489.823 186.051 489.823 183.683V166.794H493.032V183.721ZM605.332 166.335C607.829 166.335 610.007 166.921 611.866 168.093C613.726 169.264 615.165 170.895 616.184 172.983C617.203 175.047 617.712 177.441 617.712 180.167C617.712 182.918 617.203 185.338 616.184 187.427C615.165 189.49 613.726 191.108 611.866 192.279C610.007 193.426 607.829 193.999 605.332 193.999C602.887 193.999 600.735 193.426 598.875 192.279C597.016 191.108 595.563 189.49 594.519 187.427C593.474 185.338 592.952 182.918 592.952 180.167C592.952 177.441 593.474 175.047 594.519 172.983C595.563 170.895 597.016 169.265 598.875 168.093C600.735 166.921 602.887 166.335 605.332 166.335ZM689.409 166.335C691.116 166.335 692.594 166.653 693.842 167.29C695.116 167.927 696.109 168.806 696.822 169.927C697.536 171.022 697.892 172.296 697.892 173.748H694.529C694.529 173.009 694.338 172.283 693.956 171.57C693.574 170.857 692.989 170.271 692.199 169.812C691.435 169.329 690.467 169.086 689.295 169.086C688.327 169.06 687.461 169.226 686.696 169.583C685.958 169.914 685.372 170.398 684.939 171.035C684.531 171.672 684.327 172.449 684.327 173.366C684.327 174.232 684.506 174.932 684.862 175.467C685.245 176.002 685.78 176.461 686.468 176.843C687.181 177.199 688.009 177.53 688.951 177.836C689.894 178.142 690.938 178.486 692.084 178.868C693.383 179.301 694.53 179.836 695.524 180.473C696.542 181.084 697.331 181.874 697.892 182.842C698.478 183.81 698.771 185.045 698.771 186.548C698.771 187.821 698.427 189.032 697.739 190.178C697.077 191.299 696.084 192.215 694.759 192.929C693.434 193.642 691.766 193.999 689.753 193.999C687.792 193.999 686.085 193.642 684.633 192.929C683.181 192.215 682.06 191.222 681.271 189.948C680.481 188.675 680.086 187.198 680.086 185.517H683.448C683.448 186.561 683.691 187.528 684.175 188.42C684.659 189.286 685.36 189.987 686.277 190.521C687.219 191.031 688.378 191.286 689.753 191.286C690.95 191.286 691.97 191.095 692.811 190.713C693.677 190.305 694.326 189.758 694.759 189.07C695.217 188.383 695.446 187.605 695.446 186.739C695.446 185.771 695.23 184.969 694.797 184.332C694.389 183.67 693.816 183.135 693.077 182.728C692.339 182.295 691.486 181.912 690.518 181.581C689.55 181.25 688.506 180.905 687.385 180.549C685.143 179.836 683.512 178.944 682.493 177.874C681.5 176.779 681.003 175.378 681.003 173.672C681.003 172.22 681.335 170.946 681.997 169.851C682.685 168.755 683.652 167.901 684.901 167.29C686.174 166.653 687.677 166.335 689.409 166.335ZM222.925 189.72L229.458 166.794H233.05L239.431 189.796L245.278 166.794H248.716L241.227 193.54H237.559L231.178 171.417L224.644 193.54H221.052L213.716 166.794H217.154L222.925 189.72ZM285.235 169.43H271.899V178.753H284.088V181.352H271.899V190.904H285.235V193.54H268.69V166.794H285.235V169.43ZM315.892 166.794C317.777 166.794 319.33 167.1 320.553 167.711C321.801 168.297 322.731 169.112 323.342 170.156C323.953 171.175 324.259 172.321 324.259 173.595C324.259 174.97 323.953 176.117 323.342 177.034C322.756 177.951 321.98 178.652 321.012 179.136C320.527 179.385 320.025 179.581 319.507 179.729C320.282 179.862 321.014 180.134 321.699 180.549C322.667 181.135 323.432 181.925 323.992 182.918C324.578 183.911 324.87 185.02 324.87 186.242C324.87 187.592 324.539 188.828 323.877 189.949C323.215 191.044 322.234 191.923 320.935 192.585C319.661 193.222 318.082 193.54 316.197 193.54H306.491V166.794H315.892ZM458.225 190.98H470.681V193.54H455.015V166.794H458.225V190.98ZM548.678 169.43H540.692V193.54H537.482V169.43H529.496V166.794H548.678V169.43ZM572.079 193.54H568.869V166.794H572.079V193.54ZM656.04 188.268V166.794H659.25V193.54H656.04L641.788 172.066V193.54H638.578V166.794H641.788L656.04 188.268ZM421.769 169.201C419.96 169.201 418.368 169.634 416.992 170.5C415.642 171.366 414.585 172.627 413.82 174.283C413.056 175.913 412.675 177.875 412.675 180.167C412.675 182.46 413.056 184.434 413.82 186.09C414.585 187.72 415.642 188.981 416.992 189.872C418.368 190.738 419.96 191.172 421.769 191.172C423.603 191.172 425.195 190.738 426.545 189.872C427.92 188.981 428.977 187.72 429.716 186.09C430.48 184.434 430.862 182.46 430.862 180.167C430.862 177.875 430.48 175.913 429.716 174.283C428.977 172.628 427.921 171.366 426.545 170.5C425.195 169.634 423.603 169.201 421.769 169.201ZM605.332 169.201C603.524 169.201 601.931 169.634 600.556 170.5C599.206 171.366 598.149 172.628 597.385 174.283C596.621 175.913 596.238 177.875 596.238 180.167C596.238 182.46 596.621 184.434 597.385 186.09C598.149 187.72 599.206 188.981 600.556 189.872C601.931 190.738 603.524 191.172 605.332 191.172C607.166 191.172 608.759 190.738 610.109 189.872C611.484 188.981 612.542 187.72 613.28 186.09C614.045 184.434 614.426 182.46 614.426 180.167C614.426 177.875 614.044 175.913 613.28 174.283C612.542 172.627 611.484 171.366 610.109 170.5C608.759 169.634 607.166 169.201 605.332 169.201ZM309.701 190.866H315.854C317.662 190.866 319.062 190.445 320.056 189.604C321.075 188.738 321.585 187.541 321.585 186.013C321.585 184.51 321.062 183.313 320.018 182.422C318.999 181.505 317.585 181.046 315.777 181.046H309.701V190.866ZM309.701 178.485H315.662C317.394 178.485 318.706 178.078 319.598 177.263C320.515 176.448 320.974 175.339 320.974 173.938C320.974 172.589 320.515 171.506 319.598 170.691C318.706 169.876 317.356 169.469 315.548 169.469H309.701V178.485Z" fill="white"/>
</svg>
