<svg width="848" height="234" viewBox="0 0 848 234" fill="none" xmlns="http://www.w3.org/2000/svg">
<path d="M396.428 189H372.634L357.022 140.07H296.273L280.661 189H257.101L314.63 19.2402H338.898L396.428 189ZM532.854 35.7158L437.359 164.364L437.165 164.625L436.854 164.723L426.372 167.998V168.593H536.581V189H405.732V171.124L405.932 170.858L501.424 43.1455L512.446 39.7705V39.1807H410.393V19.2402H532.854V35.7158ZM685.175 189H661.381L645.77 140.07H585.021L569.408 189H545.848L603.377 19.2402H627.646L685.175 189ZM764.681 19.2402C777.819 19.2403 789.51 21.1942 799.738 25.125C810.114 28.8981 818.864 34.41 825.967 41.668H825.968C833.073 48.7733 838.428 57.6019 842.044 68.1289C845.819 78.5095 847.696 90.2786 847.696 103.421C847.696 116.868 845.819 128.941 842.049 139.627L842.05 139.628C838.434 150.16 833.081 159.142 825.982 166.557L825.975 166.564C818.874 173.823 810.125 179.413 799.751 183.343L799.743 183.346C789.515 187.122 777.822 189 764.681 189H704.964V19.2402H764.681ZM770.282 187.88C770.336 187.878 770.39 187.875 770.443 187.873C770.39 187.875 770.336 187.878 770.282 187.88ZM771.163 187.839C771.32 187.831 771.476 187.823 771.633 187.814C771.476 187.823 771.32 187.831 771.163 187.839ZM772.383 187.771C772.496 187.765 772.61 187.758 772.723 187.751C772.61 187.758 772.496 187.765 772.383 187.771ZM773.396 187.706C773.577 187.694 773.759 187.681 773.94 187.668C773.759 187.681 773.577 187.694 773.396 187.706ZM774.445 187.629C774.659 187.612 774.873 187.595 775.086 187.577C774.873 187.595 774.659 187.612 774.445 187.629ZM775.569 187.536C775.766 187.519 775.962 187.501 776.158 187.482C775.962 187.501 775.766 187.519 775.569 187.536ZM776.702 187.431C776.898 187.411 777.094 187.391 777.289 187.371C777.094 187.391 776.898 187.411 776.702 187.431ZM777.797 187.318C777.965 187.3 778.134 187.281 778.302 187.262C778.134 187.281 777.965 187.3 777.797 187.318ZM778.893 187.194C779.059 187.175 779.226 187.153 779.392 187.133C779.225 187.153 779.059 187.175 778.893 187.194ZM780.013 187.056C780.106 187.044 780.199 187.03 780.292 187.018C780.199 187.03 780.106 187.044 780.013 187.056ZM781.076 186.912C781.139 186.903 781.201 186.895 781.264 186.886C781.201 186.895 781.139 186.903 781.076 186.912ZM783.835 186.486C783.957 186.466 784.079 186.447 784.201 186.426C784.079 186.447 783.957 186.466 783.835 186.486ZM784.547 186.364C784.772 186.325 784.996 186.285 785.22 186.244C784.996 186.285 784.772 186.325 784.547 186.364ZM785.588 186.175C785.83 186.129 786.072 186.084 786.313 186.037C786.072 186.084 785.83 186.129 785.588 186.175ZM786.523 185.995C786.796 185.941 787.069 185.886 787.34 185.83C787.069 185.886 786.796 185.941 786.523 185.995ZM787.634 185.769C787.863 185.72 788.091 185.672 788.319 185.622C788.091 185.672 787.863 185.72 787.634 185.769ZM788.797 185.516C788.946 185.482 789.095 185.448 789.244 185.414C789.095 185.448 788.946 185.482 788.797 185.516ZM789.907 185.26C790.015 185.234 790.123 185.208 790.231 185.182C790.123 185.208 790.015 185.234 789.907 185.26ZM790.785 185.046C790.957 185.003 791.129 184.96 791.3 184.916C791.129 184.96 790.957 185.003 790.785 185.046ZM791.816 184.783C791.943 184.75 792.068 184.716 792.194 184.683C792.068 184.716 791.943 184.75 791.816 184.783ZM792.798 184.521C792.92 184.487 793.042 184.453 793.164 184.419C793.042 184.453 792.92 184.487 792.798 184.521ZM793.786 184.243C793.871 184.219 793.956 184.194 794.041 184.169C793.956 184.194 793.871 184.219 793.786 184.243ZM794.781 183.95C794.827 183.936 794.872 183.922 794.918 183.908C794.872 183.922 794.827 183.936 794.781 183.95ZM795.645 183.686C795.794 183.639 795.943 183.59 796.093 183.542C795.943 183.59 795.794 183.639 795.645 183.686ZM796.617 183.374C796.704 183.346 796.79 183.317 796.876 183.288C796.79 183.317 796.704 183.346 796.617 183.374ZM797.533 183.068C797.839 182.964 798.143 182.859 798.446 182.752C798.143 182.859 797.839 182.964 797.533 183.068ZM801.246 181.683C800.636 181.93 800.02 182.172 799.397 182.408C800.02 182.172 800.636 181.93 801.246 181.683ZM802.795 181.034C802.891 180.993 802.987 180.953 803.082 180.911C802.987 180.953 802.891 180.993 802.795 181.034ZM804.55 180.254C804.674 180.197 804.798 180.141 804.922 180.084C804.798 180.141 804.674 180.197 804.55 180.254ZM805.298 179.906C805.464 179.828 805.629 179.75 805.794 179.671C805.629 179.75 805.464 179.828 805.298 179.906ZM806.13 179.508C806.336 179.408 806.541 179.308 806.745 179.206C806.541 179.308 806.336 179.408 806.13 179.508ZM806.866 179.146C807.115 179.021 807.361 178.896 807.607 178.77C807.361 178.896 807.115 179.021 806.866 179.146ZM807.848 178.646C808.027 178.553 808.205 178.46 808.383 178.366C808.205 178.46 808.027 178.553 807.848 178.646ZM808.79 178.149C808.952 178.063 809.113 177.976 809.274 177.888C809.114 177.976 808.952 178.063 808.79 178.149ZM809.601 177.708C809.772 177.613 809.943 177.519 810.113 177.423C809.943 177.519 809.772 177.613 809.601 177.708ZM810.451 177.231C810.615 177.138 810.777 177.044 810.939 176.95C810.777 177.044 810.615 177.138 810.451 177.231ZM811.286 176.747C811.446 176.653 811.606 176.559 811.765 176.464C811.606 176.559 811.446 176.653 811.286 176.747ZM812.089 176.269C812.255 176.168 812.42 176.067 812.584 175.966C812.42 176.067 812.254 176.168 812.089 176.269ZM812.905 175.767C813.055 175.673 813.205 175.579 813.354 175.484C813.205 175.579 813.055 175.673 812.905 175.767ZM813.77 175.218C813.885 175.143 814.001 175.068 814.116 174.992C814.001 175.068 813.885 175.143 813.77 175.218ZM814.535 174.717C814.666 174.63 814.797 174.542 814.928 174.454C814.797 174.542 814.666 174.63 814.535 174.717ZM815.292 174.208C815.448 174.102 815.603 173.994 815.758 173.887C815.603 173.994 815.448 174.102 815.292 174.208ZM816.044 173.687C816.201 173.576 816.358 173.464 816.515 173.353C816.358 173.464 816.201 173.576 816.044 173.687ZM816.81 173.141C816.973 173.023 817.134 172.903 817.296 172.784C817.134 172.903 816.972 173.023 816.81 173.141ZM817.561 172.589C817.731 172.462 817.901 172.334 818.07 172.205C817.901 172.334 817.731 172.462 817.561 172.589ZM818.29 172.037C818.481 171.891 818.671 171.744 818.859 171.596C818.671 171.744 818.481 171.891 818.29 172.037ZM819.037 171.457C819.212 171.319 819.385 171.179 819.558 171.04C819.385 171.179 819.212 171.319 819.037 171.457ZM819.767 170.872C819.93 170.739 820.093 170.606 820.255 170.472C820.093 170.606 819.93 170.739 819.767 170.872ZM820.485 170.279C820.647 170.144 820.808 170.007 820.969 169.87C820.808 170.007 820.647 170.144 820.485 170.279ZM768.708 169.699C767.692 169.754 766.665 169.792 765.628 169.811C766.665 169.792 767.692 169.754 768.708 169.699ZM821.891 169.07C822.819 168.248 823.723 167.402 824.601 166.53L825.26 165.865C824.176 166.973 823.053 168.041 821.891 169.07ZM727.468 168.826H763.981C772.888 168.826 781.002 167.522 788.334 164.927C795.817 162.178 802.215 158.137 807.544 152.809L807.554 152.799C813.02 147.484 817.216 140.71 820.123 132.447L820.129 132.432C823.186 124.179 824.727 114.515 824.727 103.421C824.727 92.6401 823.186 83.2911 820.133 75.3535L820.129 75.3438L820.125 75.332C817.219 67.2272 813.027 60.6104 807.564 55.4512L807.544 55.4307C802.219 50.1062 795.827 46.1462 788.352 43.5527L788.34 43.5488L788.328 43.5439C780.998 40.7953 772.886 39.4141 763.981 39.4141H727.468V168.826ZM780.933 168.071C780.495 168.168 780.055 168.26 779.613 168.349C780.055 168.26 780.495 168.168 780.933 168.071ZM783.727 167.394C783.057 167.571 782.382 167.739 781.701 167.897C782.382 167.739 783.057 167.571 783.727 167.394ZM787.978 166.108C786.932 166.465 785.871 166.794 784.796 167.1C785.871 166.795 786.932 166.465 787.978 166.108ZM808.977 152.791C808.737 153.035 808.496 153.277 808.251 153.516C808.496 153.277 808.737 153.035 808.977 152.791ZM841.664 137.657C841.711 137.514 841.76 137.371 841.807 137.228C841.76 137.371 841.711 137.514 841.664 137.657ZM842.401 135.318C842.273 135.749 842.141 136.177 842.006 136.603C842.141 136.177 842.273 135.749 842.401 135.318ZM842.934 133.47C842.945 133.429 842.956 133.388 842.967 133.347C842.956 133.388 842.945 133.429 842.934 133.47ZM843.121 132.779C843.17 132.596 843.219 132.412 843.268 132.228C843.219 132.412 843.17 132.596 843.121 132.779ZM323.316 56.1084L323.289 56.1943L299.01 132.012H354.519L330.238 56.1943L330.211 56.1084L327.285 33.8223H326.243L323.316 56.1084ZM612.063 56.1084L612.036 56.1943L587.757 132.012H643.266L618.985 56.1943L618.958 56.1084L616.032 33.8223H614.99L612.063 56.1084ZM843.415 131.653C843.454 131.499 843.494 131.345 843.532 131.19C843.494 131.345 843.454 131.499 843.415 131.653ZM822.011 130.032C821.881 130.438 821.75 130.841 821.613 131.24C821.75 130.841 821.881 130.438 822.011 130.032ZM843.628 130.798C843.674 130.607 843.721 130.417 843.767 130.226C843.721 130.417 843.674 130.607 843.628 130.798ZM843.921 129.568C843.949 129.445 843.977 129.322 844.005 129.198C843.977 129.322 843.949 129.445 843.921 129.568ZM844.128 128.646C844.172 128.446 844.216 128.246 844.259 128.045C844.216 128.246 844.172 128.446 844.128 128.646ZM844.345 127.641C844.392 127.415 844.438 127.189 844.483 126.963C844.438 127.189 844.392 127.415 844.345 127.641ZM844.556 126.604C844.601 126.373 844.646 126.141 844.69 125.909C844.646 126.141 844.601 126.373 844.556 126.604ZM844.77 125.489C844.812 125.262 844.855 125.035 844.896 124.807C844.855 125.035 844.812 125.262 844.77 125.489ZM844.99 124.265C845.012 124.139 845.034 124.014 845.056 123.888C845.034 124.014 845.012 124.139 844.99 124.265ZM845.189 123.084C845.207 122.974 845.226 122.863 845.243 122.753C845.226 122.863 845.207 122.974 845.189 123.084ZM845.353 122.047C845.372 121.918 845.392 121.79 845.411 121.661C845.392 121.79 845.372 121.918 845.353 122.047ZM845.508 120.994C845.532 120.825 845.556 120.657 845.579 120.487C845.556 120.657 845.532 120.825 845.508 120.994ZM845.668 119.823C845.682 119.718 845.695 119.612 845.709 119.507C845.695 119.612 845.682 119.718 845.668 119.823ZM845.813 118.672C845.831 118.524 845.849 118.375 845.866 118.227C845.849 118.375 845.831 118.524 845.813 118.672ZM845.938 117.603C845.963 117.375 845.988 117.147 846.012 116.918C845.988 117.147 845.963 117.375 845.938 117.603ZM846.052 116.529C846.071 116.338 846.09 116.145 846.108 115.953C846.09 116.145 846.071 116.338 846.052 116.529ZM846.165 115.361C846.185 115.146 846.204 114.93 846.223 114.714C846.204 114.93 846.185 115.146 846.165 115.361ZM846.263 114.241C846.283 113.993 846.302 113.745 846.321 113.496C846.302 113.745 846.283 113.993 846.263 114.241ZM846.357 113.015C846.371 112.824 846.385 112.633 846.397 112.442C846.385 112.633 846.371 112.824 846.357 113.015ZM825.565 109.511C825.537 110.037 825.504 110.56 825.468 111.08C825.504 110.56 825.537 110.037 825.565 109.511ZM846.562 109.511C846.568 109.381 846.573 109.252 846.578 109.122C846.573 109.252 846.568 109.381 846.562 109.511ZM825.687 106.466C825.682 106.643 825.675 106.82 825.67 106.997C825.685 106.502 825.699 106.003 825.708 105.502L825.687 106.466ZM798.205 25.6191C798.605 25.7652 799.002 25.9135 799.397 26.0654C799.002 25.9135 798.605 25.7652 798.205 25.6191ZM796.997 25.1904C796.853 25.1406 796.71 25.0891 796.565 25.04C796.71 25.0891 796.853 25.1406 796.997 25.1904ZM796.148 24.9014C795.966 24.8405 795.784 24.7794 795.601 24.7197C795.784 24.7794 795.966 24.8405 796.148 24.9014ZM795.203 24.5928C795.007 24.5301 794.811 24.4666 794.614 24.4053C794.811 24.4666 795.007 24.5301 795.203 24.5928ZM794.279 24.3027C794.067 24.2377 793.854 24.1729 793.641 24.1094C793.854 24.1729 794.067 24.2377 794.279 24.3027ZM793.244 23.9932C793.049 23.9361 792.853 23.879 792.656 23.8232C792.853 23.879 793.049 23.9361 793.244 23.9932ZM792.119 23.6738C791.987 23.6372 791.854 23.6005 791.721 23.5645C791.854 23.6005 791.987 23.6372 792.119 23.6738ZM791.226 23.4316C791.013 23.3753 790.799 23.3195 790.585 23.2646C790.799 23.3195 791.013 23.3753 791.226 23.4316ZM790.337 23.2021C790.121 23.1474 789.904 23.0923 789.687 23.0391C789.904 23.0923 790.121 23.1474 790.337 23.2021ZM789.061 22.8896C788.93 22.8586 788.798 22.8274 788.667 22.7969C788.798 22.8274 788.93 22.8586 789.061 22.8896ZM788.18 22.6855C787.982 22.6408 787.783 22.5963 787.584 22.5527C787.783 22.5963 787.982 22.6408 788.18 22.6855ZM787.106 22.4502C786.928 22.4122 786.749 22.3749 786.57 22.3379C786.749 22.3749 786.928 22.4122 787.106 22.4502ZM786.1 22.2412C785.913 22.2036 785.725 22.1664 785.537 22.1299C785.725 22.1664 785.913 22.2036 786.1 22.2412ZM784.959 22.0195C784.8 21.9896 784.64 21.9608 784.48 21.9316C784.64 21.9608 784.8 21.9896 784.959 22.0195ZM783.994 21.8438C783.801 21.8095 783.607 21.7753 783.413 21.7422C783.607 21.7753 783.801 21.8095 783.994 21.8438ZM782.891 21.6543C782.684 21.6202 782.476 21.5876 782.269 21.5547C782.476 21.5876 782.684 21.6202 782.891 21.6543ZM781.905 21.4971C781.674 21.4614 781.442 21.4268 781.21 21.3926C781.442 21.4268 781.674 21.4614 781.905 21.4971ZM780.715 21.3213C780.548 21.2976 780.38 21.2749 780.213 21.252C780.38 21.2749 780.548 21.2976 780.715 21.3213ZM779.624 21.1729C779.464 21.1519 779.304 21.1315 779.144 21.1113C779.304 21.1315 779.464 21.1519 779.624 21.1729ZM778.49 21.0303C778.355 21.0142 778.22 20.999 778.085 20.9834C778.22 20.999 778.355 21.0142 778.49 21.0303ZM777.38 20.9033C777.2 20.8838 777.02 20.8654 776.839 20.8467C777.02 20.8654 777.2 20.8838 777.38 20.9033ZM776.384 20.7998C776.131 20.7747 775.877 20.751 775.622 20.7275C775.877 20.751 776.131 20.7747 776.384 20.7998ZM775.217 20.6904C775.001 20.6714 774.784 20.6536 774.567 20.6357C774.784 20.6536 775.001 20.6714 775.217 20.6904ZM774.053 20.5938C773.92 20.5835 773.787 20.5743 773.654 20.5645C773.787 20.5743 773.92 20.5835 774.053 20.5938ZM771.797 20.4414C771.566 20.4281 771.334 20.4163 771.102 20.4043C771.334 20.4163 771.566 20.4281 771.797 20.4414ZM770.591 20.3779C770.468 20.3721 770.344 20.3678 770.221 20.3623C770.344 20.3678 770.468 20.3721 770.591 20.3779ZM769.407 20.3271C769.327 20.3241 769.246 20.3222 769.166 20.3193C769.246 20.3222 769.327 20.3241 769.407 20.3271ZM768.255 20.2891C768.182 20.287 768.108 20.2861 768.035 20.2842C768.108 20.2861 768.182 20.287 768.255 20.2891ZM821.229 169.648C821.397 169.504 821.563 169.358 821.729 169.212C821.563 169.358 821.397 169.504 821.229 169.648ZM809.263 152.499C809.168 152.597 809.072 152.694 808.977 152.791C809.072 152.694 809.168 152.597 809.263 152.499ZM810.244 151.452C810.376 151.307 810.507 151.16 810.638 151.013C810.507 151.16 810.376 151.307 810.244 151.452ZM841.104 139.303C841.218 138.981 841.328 138.658 841.438 138.334C841.328 138.658 841.218 138.981 841.104 139.303ZM818.816 138.34C818.873 138.218 818.929 138.096 818.984 137.974C818.929 138.096 818.873 138.218 818.816 138.34ZM822.86 127.151C822.913 126.956 822.964 126.761 823.016 126.564C822.964 126.761 822.913 126.956 822.86 127.151ZM825.143 114.761C825.161 114.586 825.179 114.412 825.197 114.236C825.179 114.412 825.161 114.586 825.143 114.761ZM825.323 112.917C825.34 112.722 825.357 112.527 825.373 112.331C825.357 112.527 825.34 112.722 825.323 112.917ZM798.205 25.6191C797.985 25.5387 797.764 25.4585 797.543 25.3799C797.764 25.4585 797.985 25.5387 798.205 25.6191Z" fill="white"/>
<path d="M223.464 218.826L233.199 201.324C238.066 192.521 238.273 181.958 233.716 172.948L204.305 115.264L172.304 52.4019L164.019 36.0391L161.844 31.6895C156.459 23.0939 146.931 17.3979 136.161 17.3979C125.598 17.3979 116.277 22.8867 110.892 31.1717L109.028 34.4857L25.8676 182.89L23.5892 187.032C19.4467 195.732 19.2396 206.709 25.0391 217.583C27.5246 222.347 31.5635 226.179 36.3273 228.561C54.0364 237.467 71.6419 230.632 79.8233 217.376L81.0661 215.201L135.954 117.335C136.472 116.3 136.989 115.264 137.714 114.228C142.893 106.047 152.11 100.662 162.466 100.662C178.725 100.662 191.877 113.814 191.877 130.073C191.877 134.734 190.738 139.187 188.77 143.122C188.356 143.951 187.838 144.883 187.321 145.608L165.262 184.858L162.776 189.207C161.016 193.142 159.98 197.389 159.98 201.945C159.98 218.101 172.408 231.253 188.149 232.6H199.852C209.69 232.6 218.7 227.318 223.464 218.826Z" fill="url(#paint0_linear_68_2)"/>
<path fill-rule="evenodd" clip-rule="evenodd" d="M104.398 32.6523C113.968 15.746 133.832 8.89311 148.764 17.346C131.841 7.76607 110.364 13.7053 100.793 30.6116L17.3288 178.053C7.75836 194.959 13.7189 216.431 30.6421 226.011C15.7099 217.558 11.3633 197 20.9337 180.094L104.398 32.6523Z" fill="#3877F7"/>
<path fill-rule="evenodd" clip-rule="evenodd" d="M180.595 142.736C187.509 130.522 185.077 111.378 172.763 104.644C187.105 112.488 192.252 130.552 184.199 144.777L160.522 186.604C151.33 202.841 157.863 223.467 174.727 231.453C155.688 222.437 146.54 202.895 156.917 184.563L180.595 142.736Z" fill="#3877F7"/>
<path d="M457.759 200.248C459.813 200.248 461.592 200.632 463.095 201.398C464.628 202.165 465.824 203.223 466.683 204.572C467.541 205.891 467.971 207.424 467.971 209.172H463.923C463.923 208.283 463.692 207.408 463.232 206.55C462.772 205.691 462.068 204.986 461.117 204.434C460.197 203.851 459.032 203.56 457.621 203.56C456.456 203.529 455.413 203.729 454.493 204.158C453.604 204.557 452.898 205.14 452.377 205.906C451.886 206.673 451.641 207.608 451.641 208.712C451.641 209.755 451.856 210.598 452.285 211.242C452.745 211.886 453.389 212.438 454.217 212.898C455.075 213.328 456.072 213.726 457.207 214.094C458.342 214.462 459.599 214.876 460.979 215.336C462.543 215.857 463.923 216.501 465.119 217.268C466.346 218.004 467.296 218.955 467.971 220.12C468.676 221.285 469.029 222.773 469.029 224.582C469.029 226.115 468.615 227.572 467.787 228.952C466.99 230.301 465.794 231.405 464.199 232.264C462.605 233.122 460.596 233.552 458.173 233.552C455.812 233.552 453.757 233.122 452.009 232.264C450.261 231.405 448.912 230.209 447.961 228.676C447.01 227.142 446.535 225.364 446.535 223.34H450.583C450.583 224.597 450.874 225.763 451.457 226.836C452.04 227.879 452.883 228.722 453.987 229.366C455.122 229.979 456.517 230.286 458.173 230.286C459.614 230.286 460.841 230.056 461.853 229.596C462.895 229.105 463.678 228.446 464.199 227.618C464.751 226.79 465.027 225.854 465.027 224.812C465.027 223.646 464.766 222.681 464.245 221.914C463.754 221.117 463.064 220.473 462.175 219.982C461.285 219.461 460.258 219 459.093 218.602C457.928 218.203 456.67 217.79 455.321 217.36C452.623 216.502 450.659 215.428 449.433 214.14C448.237 212.821 447.639 211.135 447.639 209.08C447.639 207.332 448.038 205.799 448.835 204.48C449.663 203.162 450.828 202.134 452.331 201.398C453.864 200.632 455.673 200.248 457.759 200.248ZM507.758 200.248C510.763 200.248 513.385 200.954 515.624 202.364C517.863 203.775 519.596 205.737 520.822 208.252C522.049 210.736 522.662 213.619 522.662 216.9C522.662 220.212 522.049 223.125 520.822 225.64C519.596 228.124 517.863 230.072 515.624 231.482C513.385 232.862 510.763 233.552 507.758 233.552C504.814 233.552 502.223 232.862 499.984 231.482C497.746 230.072 495.998 228.124 494.74 225.64C493.483 223.125 492.855 220.212 492.854 216.9C492.854 213.619 493.483 210.736 494.74 208.252C495.998 205.737 497.746 203.775 499.984 202.364C502.223 200.954 504.814 200.248 507.758 200.248ZM593.552 221.178C593.552 223.263 593.889 224.966 594.563 226.284C595.269 227.603 596.235 228.568 597.461 229.182C598.688 229.795 600.099 230.102 601.693 230.102C603.319 230.102 604.729 229.795 605.925 229.182C607.121 228.568 608.057 227.603 608.731 226.284C609.406 224.966 609.743 223.263 609.743 221.178V200.8H613.607V221.132C613.607 223.984 613.07 226.33 611.997 228.17C610.924 229.979 609.482 231.328 607.673 232.218C605.864 233.107 603.84 233.552 601.602 233.552C599.394 233.552 597.385 233.107 595.575 232.218C593.797 231.328 592.37 229.979 591.297 228.17C590.224 226.33 589.688 223.984 589.688 221.132V200.8H593.552V221.178ZM728.747 200.248C731.752 200.248 734.374 200.954 736.612 202.364C738.851 203.775 740.584 205.737 741.811 208.252C743.037 210.736 743.65 213.619 743.65 216.9C743.65 220.212 743.037 223.125 741.811 225.64C740.584 228.124 738.851 230.072 736.612 231.482C734.374 232.862 731.752 233.552 728.747 233.552C725.803 233.552 723.211 232.862 720.973 231.482C718.734 230.072 716.986 228.124 715.729 225.64C714.471 223.125 713.843 220.212 713.843 216.9C713.843 213.619 714.471 210.736 715.729 208.252C716.986 205.737 718.734 203.775 720.973 202.364C723.211 200.954 725.803 200.248 728.747 200.248ZM829.966 200.248C832.02 200.248 833.799 200.632 835.302 201.398C836.835 202.165 838.031 203.223 838.89 204.572C839.748 205.891 840.178 207.424 840.178 209.172H836.129C836.129 208.283 835.899 207.408 835.439 206.55C834.979 205.691 834.274 204.986 833.323 204.434C832.403 203.851 831.238 203.56 829.827 203.56C828.662 203.529 827.619 203.729 826.699 204.158C825.81 204.557 825.104 205.14 824.583 205.906C824.092 206.673 823.848 207.608 823.848 208.712C823.848 209.755 824.062 210.598 824.491 211.242C824.951 211.886 825.596 212.438 826.424 212.898C827.282 213.328 828.279 213.726 829.413 214.094C830.548 214.462 831.806 214.876 833.186 215.336C834.749 215.857 836.129 216.501 837.325 217.268C838.552 218.004 839.503 218.955 840.178 220.12C840.883 221.285 841.235 222.773 841.235 224.582C841.235 226.115 840.821 227.572 839.993 228.952C839.196 230.301 838 231.405 836.405 232.264C834.811 233.122 832.802 233.552 830.379 233.552C828.018 233.552 825.964 233.122 824.216 232.264C822.468 231.405 821.118 230.209 820.167 228.676C819.216 227.143 818.741 225.364 818.741 223.34H822.789C822.789 224.597 823.08 225.763 823.663 226.836C824.246 227.879 825.089 228.722 826.193 229.366C827.328 229.979 828.723 230.286 830.379 230.286C831.82 230.286 833.048 230.056 834.06 229.596C835.102 229.105 835.884 228.446 836.405 227.618C836.957 226.79 837.233 225.854 837.233 224.812C837.233 223.646 836.972 222.681 836.451 221.914C835.961 221.117 835.271 220.473 834.382 219.982C833.493 219.461 832.465 219 831.3 218.602C830.134 218.203 828.877 217.79 827.527 217.36C824.829 216.502 822.866 215.428 821.64 214.14C820.444 212.821 819.846 211.135 819.846 209.08C819.846 207.332 820.244 205.799 821.041 204.48C821.869 203.162 823.035 202.134 824.537 201.398C826.07 200.632 827.88 200.248 829.966 200.248ZM268.374 228.4L276.24 200.8H280.564L288.246 228.492L295.284 200.8H299.424L290.408 233H285.992L278.31 206.366L270.444 233H266.12L257.288 200.8H261.428L268.374 228.4ZM343.388 203.974H327.333V215.198H342.008V218.326H327.333V229.826H343.388V233H323.47V200.8H343.388V203.974ZM380.295 200.8C382.564 200.8 384.435 201.168 385.907 201.904C387.41 202.61 388.529 203.591 389.265 204.848C390.001 206.074 390.369 207.455 390.369 208.988C390.369 210.644 390.001 212.024 389.265 213.128C388.559 214.232 387.624 215.076 386.459 215.658C385.878 215.957 385.276 216.192 384.655 216.37C385.586 216.532 386.464 216.862 387.287 217.36C388.452 218.066 389.372 219.016 390.047 220.212C390.752 221.408 391.104 222.742 391.104 224.214C391.104 225.839 390.706 227.327 389.909 228.676C389.112 229.994 387.931 231.052 386.367 231.85C384.834 232.616 382.932 233 380.663 233H368.979V200.8H380.295ZM551.646 229.918H566.643V233H547.782V200.8H551.646V229.918ZM660.541 203.974H650.927V233H647.062V203.974H637.449V200.8H660.541V203.974ZM688.714 233H684.85V200.8H688.714V233ZM789.793 226.652V200.8H793.657V233H789.793L772.635 207.148V233H768.771V200.8H772.635L789.793 226.652ZM507.758 203.698C505.581 203.698 503.664 204.219 502.008 205.262C500.382 206.304 499.11 207.823 498.19 209.816C497.27 211.779 496.81 214.14 496.81 216.9C496.81 219.66 497.27 222.037 498.19 224.03C499.11 225.993 500.383 227.511 502.008 228.584C503.664 229.627 505.581 230.148 507.758 230.148C509.966 230.148 511.883 229.627 513.508 228.584C515.164 227.511 516.437 225.993 517.326 224.03C518.246 222.037 518.706 219.66 518.706 216.9C518.706 214.141 518.246 211.779 517.326 209.816C516.437 207.823 515.164 206.304 513.508 205.262C511.883 204.219 509.966 203.698 507.758 203.698ZM728.747 203.698C726.57 203.698 724.653 204.219 722.997 205.262C721.372 206.304 720.099 207.823 719.179 209.816C718.259 211.779 717.799 214.141 717.799 216.9C717.799 219.66 718.259 222.037 719.179 224.03C720.099 225.993 721.372 227.511 722.997 228.584C724.653 229.627 726.57 230.148 728.747 230.148C730.955 230.148 732.872 229.627 734.497 228.584C736.153 227.511 737.425 225.993 738.314 224.03C739.234 222.037 739.694 219.66 739.694 216.9C739.694 214.141 739.234 211.779 738.314 209.816C737.425 207.823 736.153 206.304 734.497 205.262C732.872 204.219 730.955 203.698 728.747 203.698ZM372.843 229.78H380.249C382.426 229.78 384.113 229.274 385.309 228.262C386.535 227.219 387.148 225.778 387.148 223.938C387.148 222.129 386.52 220.688 385.263 219.614C384.036 218.51 382.334 217.958 380.157 217.958H372.843V229.78ZM372.843 214.876H380.019C382.104 214.876 383.684 214.386 384.757 213.404C385.861 212.423 386.413 211.089 386.413 209.402C386.413 207.777 385.861 206.474 384.757 205.492C383.684 204.511 382.058 204.02 379.881 204.02H372.843V214.876Z" fill="white"/>
<defs>
<linearGradient id="paint0_linear_68_2" x1="200" y1="17" x2="73" y2="233" gradientUnits="userSpaceOnUse">
<stop stop-color="#3B85FA"/>
<stop offset="1" stop-color="#315AF2"/>
</linearGradient>
</defs>
</svg>
